# Blender v2.83.0 OBJ File: 'Porte2.blend'
# www.blender.org
o Porte2
v -0.000000 2.000000 -1.500000
v -0.000000 1.300000 -0.900000
v 0.000000 0.700000 -0.900000
v -0.000000 0.650000 -0.100000
v -0.000000 0.900000 -0.000000
v 0.000000 0.050000 -0.100000
v 0.000000 0.000000 0.000000
v 0.000000 0.050000 -0.900000
v 0.000000 0.000000 -1.500000
v 0.000000 0.650000 -0.900000
v -0.000000 1.350000 -0.900000
v -0.000000 1.350000 -0.100000
v -0.000000 1.300000 -0.100000
v -0.000000 1.950000 -0.900000
v -0.000000 2.000000 -0.000000
v -0.000000 1.950000 -0.100000
v -0.000000 0.700000 -0.100000
v -0.000000 0.826795 -0.100000
v -0.000000 0.901364 -0.016459
v -0.000000 0.905418 -0.032470
v -0.000000 1.098636 -0.016459
v -0.000000 1.173205 -0.100000
v -0.000000 1.100000 -0.000000
v -0.000000 1.094582 -0.032470
v -0.000000 1.087947 -0.047595
v -0.000000 1.154921 -0.126489
v -0.000000 1.078914 -0.061421
v -0.000000 1.132625 -0.149702
v -0.000000 1.067728 -0.073572
v -0.000000 1.106893 -0.169038
v -0.000000 1.054695 -0.083717
v -0.000000 1.078393 -0.183996
v -0.000000 1.040170 -0.091577
v -0.000000 1.047863 -0.194188
v -0.000000 1.024549 -0.096940
v -0.000000 1.016093 -0.199351
v -0.000000 1.008258 -0.099658
v -0.000000 0.983907 -0.199351
v -0.000000 0.991742 -0.099658
v -0.000000 0.952137 -0.194188
v -0.000000 0.975452 -0.096940
v -0.000000 0.921607 -0.183996
v -0.000000 0.959830 -0.091577
v -0.000000 0.893107 -0.169038
v -0.000000 0.945305 -0.083717
v -0.000000 0.867376 -0.149702
v -0.000000 0.932272 -0.073572
v -0.000000 0.845079 -0.126489
v -0.000000 0.921086 -0.061421
v -0.000000 0.912053 -0.047595
v -0.100000 1.100000 -0.000000
v -0.100000 2.000000 -0.000000
v -0.100000 -0.000000 -1.500000
v -0.100000 2.000000 -1.500000
v -0.100000 -0.000000 -0.000000
v -0.100000 0.900000 -0.000000
v -0.100000 1.098636 -0.016459
v -0.100000 0.921086 -0.061421
v -0.100000 0.932272 -0.073572
v -0.100000 0.945305 -0.083717
v -0.100000 0.959830 -0.091577
v -0.100000 0.901364 -0.016459
v -0.100000 0.905418 -0.032470
v -0.100000 0.912053 -0.047595
v -0.100000 0.975452 -0.096940
v -0.100000 0.991742 -0.099658
v -0.100000 1.008258 -0.099658
v -0.100000 1.024549 -0.096940
v -0.100000 1.040170 -0.091577
v -0.100000 1.054695 -0.083717
v -0.100000 1.067728 -0.073572
v -0.100000 1.078914 -0.061421
v -0.100000 1.087947 -0.047595
v -0.100000 1.094582 -0.032470
v -0.000000 0.900000 -0.000000
v -0.000000 0.901364 -0.016459
v -0.000000 0.905418 -0.032470
v -0.000000 0.912053 -0.047595
v -0.000000 0.921086 -0.061421
v -0.000000 0.932272 -0.073572
v -0.000000 0.945305 -0.083717
v -0.000000 0.959830 -0.091577
v -0.000000 0.975452 -0.096940
v -0.000000 0.991742 -0.099658
v -0.000000 1.008258 -0.099658
v -0.000000 1.024549 -0.096940
v -0.000000 1.040170 -0.091577
v -0.000000 1.054695 -0.083717
v -0.000000 1.067728 -0.073572
v -0.000000 1.078914 -0.061421
v -0.000000 1.087947 -0.047595
v -0.000000 1.094582 -0.032470
v -0.010000 1.173205 -0.100000
v -0.010000 1.300000 -0.100000
v -0.010000 1.300000 -0.900000
v -0.010000 0.700000 -0.900000
v -0.010000 0.700000 -0.100000
v -0.010000 0.826795 -0.100000
v -0.010000 1.154921 -0.126489
v -0.010000 1.132625 -0.149702
v -0.010000 1.106893 -0.169038
v -0.010000 1.078393 -0.183996
v -0.010000 1.047863 -0.194188
v -0.010000 1.016093 -0.199351
v -0.010000 0.983907 -0.199351
v -0.010000 0.952137 -0.194188
v -0.010000 0.921607 -0.183996
v -0.010000 0.893107 -0.169038
v -0.010000 0.867376 -0.149702
v -0.010000 0.845079 -0.126489
v -0.010000 1.950000 -0.900000
v -0.010000 1.350000 -0.900000
v -0.010000 1.350000 -0.100000
v -0.010000 1.950000 -0.100000
v -0.010000 0.650000 -0.100000
v -0.010000 0.650000 -0.900000
v -0.010000 0.050000 -0.900000
v -0.010000 0.050000 -0.100000
vt 0.000000 0.000000
vt 0.193548 0.223919
vt 0.193548 0.415849
vt 0.451613 0.431843
vt 0.483871 0.351872
vt 0.451613 0.623773
vt 0.483871 0.639767
vt 0.193548 0.623773
vt 0.000000 0.639767
vt 0.193548 0.431843
vt 0.193548 0.207924
vt 0.451613 0.207924
vt 0.451613 0.223919
vt 0.193548 0.015994
vt 0.483871 0.000000
vt 0.451613 0.015994
vt 0.451613 0.415849
vt 0.451613 0.375289
vt 0.478561 0.351436
vt 0.473397 0.350139
vt 0.478561 0.288332
vt 0.451613 0.264478
vt 0.483871 0.287895
vt 0.473397 0.289628
vt 0.468518 0.291751
vt 0.443068 0.270327
vt 0.464058 0.294640
vt 0.435580 0.277459
vt 0.460138 0.298218
vt 0.429343 0.285690
vt 0.456865 0.302388
vt 0.424517 0.294807
vt 0.454330 0.307034
vt 0.421229 0.304573
vt 0.452600 0.312031
vt 0.419564 0.314736
vt 0.451723 0.317242
vt 0.419564 0.325032
vt 0.451723 0.322525
vt 0.421229 0.335194
vt 0.452600 0.327736
vt 0.424517 0.344960
vt 0.454330 0.332733
vt 0.429343 0.354077
vt 0.456865 0.337380
vt 0.435580 0.362308
vt 0.460138 0.341549
vt 0.443068 0.369440
vt 0.464058 0.345127
vt 0.468518 0.348017
vt 0.366773 0.955966
vt 0.000278 0.955966
vt 0.366773 0.915244
vt 0.000278 0.915244
vt 1.000000 0.000000
vt 1.000000 0.540725
vt 0.967742 0.000000
vt 0.967742 0.540725
vt 0.645161 0.896218
vt 0.645161 0.639767
vt 0.677419 0.896218
vt 0.677419 0.639767
vt 0.494474 0.915304
vt 0.858869 0.915304
vt 0.494474 0.955792
vt 0.858869 0.955792
vt 0.967742 1.000000
vt 0.967742 0.540725
vt 1.000000 1.000000
vt 1.000000 0.540725
vt 0.962432 0.351436
vt 0.967742 0.351872
vt 0.967742 0.639767
vt 0.947928 0.294640
vt 0.944009 0.298218
vt 0.483871 0.000000
vt 0.940736 0.302388
vt 0.938201 0.307034
vt 0.967742 0.287895
vt 0.962432 0.288332
vt 0.967742 0.000000
vt 0.957268 0.289628
vt 0.952389 0.291751
vt 0.936471 0.312031
vt 0.935594 0.317242
vt 0.483871 0.639767
vt 0.935594 0.322525
vt 0.936471 0.327736
vt 0.938201 0.332733
vt 0.940736 0.337380
vt 0.944009 0.341549
vt 0.947928 0.345127
vt 0.952389 0.348016
vt 0.957268 0.350139
vt 0.494558 0.915244
vt 0.494558 0.955966
vt 0.487832 0.915244
vt 0.487832 0.955966
vt 0.481107 0.915244
vt 0.481107 0.955966
vt 0.474381 0.915244
vt 0.474381 0.955966
vt 0.467656 0.915244
vt 0.467656 0.955966
vt 0.460930 0.915244
vt 0.460930 0.955966
vt 0.454205 0.915244
vt 0.454205 0.955966
vt 0.447479 0.915244
vt 0.447479 0.955966
vt 0.440754 0.915244
vt 0.440754 0.955966
vt 0.434028 0.915244
vt 0.434028 0.955966
vt 0.427303 0.915244
vt 0.427303 0.955966
vt 0.420577 0.915244
vt 0.420577 0.955966
vt 0.413852 0.915244
vt 0.413852 0.955966
vt 0.407126 0.915244
vt 0.407126 0.955966
vt 0.400400 0.915244
vt 0.400400 0.955966
vt 0.393675 0.915244
vt 0.393675 0.955966
vt 0.386949 0.915244
vt 0.386949 0.955966
vt 0.380224 0.915244
vt 0.380224 0.955966
vt 0.373498 0.915244
vt 0.373498 0.955966
vt 0.628292 0.993776
vt 0.587939 0.993872
vt 0.628284 0.990593
vt 0.587931 0.990689
vt 0.405596 0.993531
vt 0.405589 0.990348
vt 0.223263 0.993824
vt 0.223256 0.990642
vt 0.040921 0.993483
vt 0.040913 0.990300
vt 0.000568 0.993579
vt 0.000560 0.990396
vt 0.638528 0.990569
vt 0.638536 0.993751
vt 0.648772 0.990544
vt 0.648779 0.993727
vt 0.659015 0.990520
vt 0.659023 0.993703
vt 0.669259 0.990496
vt 0.669267 0.993678
vt 0.679503 0.990471
vt 0.679510 0.993654
vt 0.689746 0.990447
vt 0.689754 0.993629
vt 0.699990 0.990422
vt 0.699998 0.993605
vt 0.710234 0.990398
vt 0.710241 0.993581
vt 0.720477 0.990374
vt 0.720485 0.993556
vt 0.730721 0.990349
vt 0.730729 0.993532
vt 0.740965 0.990325
vt 0.740972 0.993507
vt 0.751208 0.990300
vt 0.751216 0.993483
vt 0.761440 0.990309
vt 0.761440 0.993485
vt 0.751217 0.993485
vt 0.751217 0.990309
vt 0.000000 0.639767
vt 0.040902 0.639767
vt 0.000000 0.895674
vt 0.046800 0.648241
vt 0.152647 0.639767
vt 0.193548 0.639767
vt 0.146749 0.648241
vt 0.193548 0.895674
vt 0.139556 0.655666
vt 0.112214 0.669897
vt 0.122062 0.666636
vt 0.131256 0.661851
vt 0.053992 0.655666
vt 0.062293 0.661851
vt 0.071486 0.666636
vt 0.081335 0.669897
vt 0.091583 0.671548
vt 0.101966 0.671548
vt 0.539960 0.982844
vt 0.360110 0.983157
vt 0.539952 0.979705
vt 0.360102 0.980018
vt 0.180250 0.982844
vt 0.180242 0.979705
vt 0.000400 0.983157
vt 0.000392 0.980017
vt 0.539931 0.979701
vt 0.720995 0.979701
vt 0.539945 0.982861
vt 0.721008 0.982861
vt 0.193548 0.639767
vt 0.387097 0.639767
vt 0.193548 0.895674
vt 0.387097 0.895674
vt 0.543901 0.995751
vt 0.726010 0.995751
vt 0.543914 0.998929
vt 0.726024 0.998929
vt 0.000161 0.996065
vt 0.181406 0.995749
vt 0.000169 0.999228
vt 0.181414 0.998913
vt 0.362660 0.996065
vt 0.362668 0.999228
vt 0.580645 0.639767
vt 0.580645 0.895674
vt 0.387097 0.639767
vt 0.387097 0.895674
vn 1.0000 0.0000 0.0000
vn -0.0000 -0.0000 1.0000
vn 0.0000 0.0000 -1.0000
vn 0.0000 -1.0000 0.0000
vn 0.0000 1.0000 0.0000
vn -1.0000 -0.0000 0.0000
vn -0.0000 0.9966 0.0826
vn 0.0000 0.9694 0.2455
vn 0.0000 0.9158 0.4017
vn 0.0000 0.8372 0.5470
vn 0.0000 0.7357 0.6773
vn -0.0000 0.6142 0.7891
vn -0.0000 0.4760 0.8795
vn 0.0000 0.4759 0.8795
vn 0.0000 0.3247 0.9458
vn 0.0000 0.1646 0.9864
vn 0.0000 -0.1646 0.9864
vn 0.0000 -0.3247 0.9458
vn -0.0000 -0.4760 0.8795
vn 0.0000 -0.4759 0.8795
vn -0.0000 -0.6142 0.7891
vn -0.0000 -0.7357 0.6773
vn 0.0000 -0.8372 0.5469
vn 0.0000 -0.8372 0.5470
vn 0.0000 -0.9158 0.4017
vn 0.0000 -0.9694 0.2455
vn -0.0000 -0.9966 0.0826
vn 0.0000 0.8230 -0.5681
vn 0.0000 0.7212 -0.6927
vn 0.0000 0.6007 -0.7994
vn 0.0000 0.4647 -0.8855
vn 0.0000 0.3167 -0.9485
vn 0.0000 0.1604 -0.9871
vn 0.0000 -0.1604 -0.9871
vn 0.0000 -0.3167 -0.9485
vn 0.0000 -0.4647 -0.8855
vn 0.0000 -0.6007 -0.7994
vn 0.0000 -0.7212 -0.6927
vn 0.0000 -0.8230 -0.5681
s off
f 1/1/1 2/2/1 3/3/1
f 4/4/1 5/5/1 6/6/1
f 6/6/1 5/5/1 7/7/1
f 6/6/1 7/7/1 8/8/1
f 8/8/1 7/7/1 9/9/1
f 8/8/1 9/9/1 10/10/1
f 11/11/1 12/12/1 13/13/1
f 13/13/1 2/2/1 11/11/1
f 11/11/1 2/2/1 1/1/1
f 11/11/1 1/1/1 14/14/1
f 14/14/1 1/1/1 15/15/1
f 14/14/1 15/15/1 16/16/1
f 9/9/1 1/1/1 10/10/1
f 10/10/1 1/1/1 3/3/1
f 10/10/1 3/3/1 4/4/1
f 4/4/1 3/3/1 17/17/1
f 4/4/1 17/17/1 5/5/1
f 5/5/1 17/17/1 18/18/1
f 5/5/1 18/18/1 19/19/1
f 19/19/1 18/18/1 20/20/1
f 21/21/1 22/22/1 23/23/1
f 23/23/1 22/22/1 13/13/1
f 23/23/1 13/13/1 15/15/1
f 15/15/1 13/13/1 12/12/1
f 15/15/1 12/12/1 16/16/1
f 21/21/1 24/24/1 22/22/1
f 22/22/1 24/24/1 25/25/1
f 22/22/1 25/25/1 26/26/1
f 26/26/1 25/25/1 27/27/1
f 26/26/1 27/27/1 28/28/1
f 28/28/1 27/27/1 29/29/1
f 28/28/1 29/29/1 30/30/1
f 30/30/1 29/29/1 31/31/1
f 30/30/1 31/31/1 32/32/1
f 32/32/1 31/31/1 33/33/1
f 32/32/1 33/33/1 34/34/1
f 34/34/1 33/33/1 35/35/1
f 34/34/1 35/35/1 36/36/1
f 36/36/1 35/35/1 37/37/1
f 36/36/1 37/37/1 38/38/1
f 38/38/1 37/37/1 39/39/1
f 38/38/1 39/39/1 40/40/1
f 40/40/1 39/39/1 41/41/1
f 40/40/1 41/41/1 42/42/1
f 42/42/1 41/41/1 43/43/1
f 42/42/1 43/43/1 44/44/1
f 44/44/1 43/43/1 45/45/1
f 44/44/1 45/45/1 46/46/1
f 46/46/1 45/45/1 47/47/1
f 46/46/1 47/47/1 48/48/1
f 48/48/1 47/47/1 49/49/1
f 48/48/1 49/49/1 18/18/1
f 18/18/1 49/49/1 50/50/1
f 18/18/1 50/50/1 20/20/1
f 23/51/2 15/52/2 51/53/2
f 51/53/2 15/52/2 52/54/2
f 53/55/3 54/56/3 9/57/3
f 9/57/3 54/56/3 1/58/3
f 55/59/4 53/60/4 7/61/4
f 7/61/4 53/60/4 9/62/4
f 56/63/2 55/64/2 5/65/2
f 5/65/2 55/64/2 7/66/2
f 54/67/5 52/68/5 1/69/5
f 1/69/5 52/68/5 15/70/5
f 57/71/6 51/72/6 52/73/6
f 58/74/6 59/75/6 53/76/6
f 53/76/6 59/75/6 60/77/6
f 53/76/6 60/77/6 61/78/6
f 56/79/6 62/80/6 55/81/6
f 55/81/6 62/80/6 63/82/6
f 55/81/6 63/82/6 53/76/6
f 53/76/6 63/82/6 64/83/6
f 53/76/6 64/83/6 58/74/6
f 61/78/6 65/84/6 53/76/6
f 53/76/6 65/84/6 66/85/6
f 53/76/6 66/85/6 54/86/6
f 54/86/6 66/85/6 67/87/6
f 54/86/6 67/87/6 68/88/6
f 68/88/6 69/89/6 54/86/6
f 54/86/6 69/89/6 70/90/6
f 54/86/6 70/90/6 71/91/6
f 71/91/6 72/92/6 54/86/6
f 54/86/6 72/92/6 73/93/6
f 54/86/6 73/93/6 52/73/6
f 52/73/6 73/93/6 74/94/6
f 52/73/6 74/94/6 57/71/6
f 56/95/7 75/96/7 62/97/7
f 62/97/7 75/96/7 76/98/7
f 62/97/8 76/98/8 63/99/8
f 63/99/8 76/98/8 77/100/8
f 63/99/9 77/100/9 64/101/9
f 64/101/9 77/100/9 78/102/9
f 64/101/10 78/102/10 58/103/10
f 58/103/10 78/102/10 79/104/10
f 58/103/11 79/104/11 59/105/11
f 59/105/11 79/104/11 80/106/11
f 59/105/12 80/106/12 60/107/12
f 60/107/12 80/106/12 81/108/12
f 60/107/13 81/108/13 61/109/13
f 61/109/14 81/108/14 82/110/14
f 61/109/15 82/110/15 65/111/15
f 65/111/15 82/110/15 83/112/15
f 65/111/16 83/112/16 66/113/16
f 66/113/16 83/112/16 84/114/16
f 66/113/2 84/114/2 67/115/2
f 67/115/2 84/114/2 85/116/2
f 67/115/17 85/116/17 68/117/17
f 68/117/17 85/116/17 86/118/17
f 68/117/18 86/118/18 69/119/18
f 69/119/18 86/118/18 87/120/18
f 69/119/19 87/120/19 70/121/19
f 70/121/20 87/120/20 88/122/20
f 70/121/21 88/122/21 71/123/21
f 71/123/21 88/122/21 89/124/21
f 71/123/22 89/124/22 72/125/22
f 72/125/22 89/124/22 90/126/22
f 72/125/23 90/126/23 73/127/23
f 73/127/24 90/126/24 91/128/24
f 73/127/25 91/128/25 74/129/25
f 74/129/25 91/128/25 92/130/25
f 74/129/26 92/130/26 57/131/26
f 57/131/26 92/130/26 21/132/26
f 57/131/27 21/132/27 51/53/27
f 51/53/27 21/132/27 23/51/27
f 93/133/3 94/134/3 22/135/3
f 22/135/3 94/134/3 13/136/3
f 94/134/4 95/137/4 13/136/4
f 13/136/4 95/137/4 2/138/4
f 95/137/2 96/139/2 2/138/2
f 2/138/2 96/139/2 3/140/2
f 96/139/5 97/141/5 3/140/5
f 3/140/5 97/141/5 17/142/5
f 97/141/3 98/143/3 17/142/3
f 17/142/3 98/143/3 18/144/3
f 93/133/28 22/135/28 26/145/28
f 93/133/28 26/145/28 99/146/28
f 99/146/29 26/145/29 28/147/29
f 99/146/29 28/147/29 100/148/29
f 100/148/30 28/147/30 30/149/30
f 100/148/30 30/149/30 101/150/30
f 101/150/31 30/149/31 32/151/31
f 101/150/31 32/151/31 102/152/31
f 102/152/32 32/151/32 34/153/32
f 102/152/32 34/153/32 103/154/32
f 103/154/33 34/153/33 36/155/33
f 103/154/33 36/155/33 104/156/33
f 104/156/3 36/155/3 38/157/3
f 104/156/3 38/157/3 105/158/3
f 105/158/34 38/157/34 40/159/34
f 105/158/34 40/159/34 106/160/34
f 106/160/35 40/159/35 42/161/35
f 106/160/35 42/161/35 107/162/35
f 107/162/36 42/161/36 44/163/36
f 107/162/36 44/163/36 108/164/36
f 108/164/37 44/163/37 46/165/37
f 108/164/37 46/165/37 109/166/37
f 109/166/38 46/165/38 48/167/38
f 109/166/38 48/167/38 110/168/38
f 110/169/39 48/170/39 18/171/39
f 110/169/39 18/171/39 98/172/39
f 94/173/1 93/174/1 95/175/1
f 95/175/1 93/174/1 99/176/1
f 98/177/1 97/178/1 110/179/1
f 110/179/1 97/178/1 96/180/1
f 110/179/1 96/180/1 109/181/1
f 106/182/1 107/183/1 96/180/1
f 96/180/1 107/183/1 108/184/1
f 96/180/1 108/184/1 109/181/1
f 99/176/1 100/185/1 95/175/1
f 95/175/1 100/185/1 101/186/1
f 95/175/1 101/186/1 102/187/1
f 102/187/1 103/188/1 95/175/1
f 95/175/1 103/188/1 104/189/1
f 95/175/1 104/189/1 96/180/1
f 96/180/1 104/189/1 105/190/1
f 96/180/1 105/190/1 106/182/1
f 111/191/2 112/192/2 14/193/2
f 14/193/2 112/192/2 11/194/2
f 112/192/5 113/195/5 11/194/5
f 11/194/5 113/195/5 12/196/5
f 113/195/3 114/197/3 12/196/3
f 12/196/3 114/197/3 16/198/3
f 114/199/4 111/200/4 16/201/4
f 16/201/4 111/200/4 14/202/4
f 114/203/1 113/204/1 111/205/1
f 111/205/1 113/204/1 112/206/1
f 115/207/4 116/208/4 4/209/4
f 4/209/4 116/208/4 10/210/4
f 116/211/2 117/212/2 10/213/2
f 10/213/2 117/212/2 8/214/2
f 117/212/5 118/215/5 8/214/5
f 8/214/5 118/215/5 6/216/5
f 118/215/3 115/207/3 6/216/3
f 6/216/3 115/207/3 4/209/3
f 118/217/1 117/218/1 115/219/1
f 115/219/1 117/218/1 116/220/1
